<?xml version="1.0" encoding="utf-8"?>
<!-- Generator: Adobe Illustrator 23.0.2, SVG Export Plug-In . SVG Version: 6.00 Build 0)  -->
<svg version="1.1" id="Camada_1" xmlns="http://www.w3.org/2000/svg" xmlns:xlink="http://www.w3.org/1999/xlink" x="0px" y="0px"
	 viewBox="0 0 592.6 59" style="enable-background:new 0 0 592.6 59;" xml:space="preserve">
<style type="text/css">
	.st0{fill:#FFFFFF;}
</style>
<g>
	<path class="st0" d="M116.5,59c-12.2,0-22.2-10-22.2-22.2V23.1c0-12.3,10-22.2,22.2-22.2h42.6c12.3,0,22.2,10,22.2,22.2v13.6
		c0,12.2-10,22.2-22.2,22.2H116.5z M116.5,12.3c-5.9,0-10.8,4.8-10.8,10.8v13.6c0,5.9,4.9,10.8,10.8,10.8h42.6
		c6,0,10.8-4.9,10.8-10.8V23.1c0-6-4.8-10.8-10.8-10.8H116.5z"/>
	<path class="st0" d="M448.5,59c-12.2,0-22.2-10-22.2-22.2V23.1c0-12.3,10-22.2,22.2-22.2h42.6c12.3,0,22.2,10,22.2,22.2v13.6
		c0,12.2-10,22.2-22.2,22.2H448.5z M448.5,12.3c-5.9,0-10.8,4.8-10.8,10.8v13.6c0,5.9,4.9,10.8,10.8,10.8h42.6
		c6,0,10.8-4.9,10.8-10.8V23.1c0-6-4.8-10.8-10.8-10.8H448.5z"/>
	<path class="st0" d="M22.2,59C10,59,0,49,0,36.7V23.1C0,10.9,10,0.9,22.2,0.9h42.6c10.4,0,19.5,7.4,21.7,17.6l0.6,2.8H75.6
		l-0.5-1.6c-1.5-4.4-5.6-7.4-10.2-7.4H22.2c-5.9,0-10.8,4.8-10.8,10.8v13.6c0,5.9,4.9,10.8,10.8,10.8h42.6c4.4,0,8.4-2.7,10-6.8
		l0.6-1.4h11.7l-0.7,2.8C83.9,52,75.1,59,64.9,59H22.2z"/>
	<polygon class="st0" points="339.9,0.9 263,0.9 263,12.3 295.7,12.3 295.7,59 307.2,59 307.2,12.3 339.9,12.3 	"/>
	<path class="st0" d="M233.8,0h-44.2v58.4h11.2V10h33c5.8,0,10.6,4.2,10.6,9.5v38.9h11.2V19.5C255.5,8.7,245.7,0,233.8,0z"/>
	<path class="st0" d="M531.1,36.7V0.9h-11.4v35.8c0,12.2,10,22.2,22.2,22.2h50.7V47.5h-50.7C536,47.5,531.1,42.7,531.1,36.7z"/>
	<path class="st0" d="M423.2,59l-26.8-18.3H417V23.1c0-12.3-10-22.2-22.2-22.2H353h-6.6V59h11.4V40.6h20.3L404.9,59H423.2z
		 M357.9,12.3h37c5.9,0,10.8,4.8,10.8,10.8v6.1h-47.8V12.3z"/>
</g>
</svg>
