<?xml version="1.0" encoding="utf-8"?>
<!-- Generator: Adobe Illustrator 23.0.2, SVG Export Plug-In . SVG Version: 6.00 Build 0)  -->
<svg version="1.1" id="Camada_1" xmlns="http://www.w3.org/2000/svg" xmlns:xlink="http://www.w3.org/1999/xlink" x="0px" y="0px"
	 viewBox="0 0 480.9 47.8" style="enable-background:new 0 0 480.9 47.8;" xml:space="preserve">
<style type="text/css">
	.st0{fill:url(#SVGID_1_);}
	.st1{fill:url(#SVGID_2_);}
	.st2{fill:url(#SVGID_3_);}
	.st3{fill:url(#SVGID_4_);}
	.st4{fill:url(#SVGID_5_);}
	.st5{fill:url(#SVGID_6_);}
	.st6{fill:url(#SVGID_7_);}
</style>
<g>
	<linearGradient id="SVGID_1_" gradientUnits="userSpaceOnUse" x1="-11.5726" y1="24.2859" x2="484.923" y2="24.2859">
		<stop  offset="0" style="stop-color:#17385D"/>
		<stop  offset="0.2405" style="stop-color:#12587E"/>
		<stop  offset="0.4963" style="stop-color:#007CA4"/>
		<stop  offset="0.7175" style="stop-color:#0099C3"/>
		<stop  offset="0.8927" style="stop-color:#00ABD7"/>
		<stop  offset="1" style="stop-color:#04B2DF"/>
	</linearGradient>
	<path class="st0" d="M94.5,47.8c-9.9,0-18-8.1-18-18v-11c0-10,8.1-18.1,18-18.1h34.6c9.9,0,18,8.1,18,18.1v11c0,9.9-8.1,18-18,18
		H94.5z M94.5,10c-4.8,0-8.8,3.9-8.8,8.8v11c0,4.8,3.9,8.8,8.8,8.8h34.6c4.8,0,8.8-3.9,8.8-8.8v-11c0-4.8-3.9-8.8-8.8-8.8H94.5z"/>
	<linearGradient id="SVGID_2_" gradientUnits="userSpaceOnUse" x1="-11.5726" y1="24.2859" x2="484.923" y2="24.2859">
		<stop  offset="0" style="stop-color:#17385D"/>
		<stop  offset="0.2405" style="stop-color:#12587E"/>
		<stop  offset="0.4963" style="stop-color:#007CA4"/>
		<stop  offset="0.7175" style="stop-color:#0099C3"/>
		<stop  offset="0.8927" style="stop-color:#00ABD7"/>
		<stop  offset="1" style="stop-color:#04B2DF"/>
	</linearGradient>
	<path class="st1" d="M364,47.8c-9.9,0-18-8.1-18-18v-11c0-10,8.1-18.1,18-18.1h34.6c9.9,0,18,8.1,18,18.1v11c0,9.9-8.1,18-18,18
		H364z M364,10c-4.8,0-8.8,3.9-8.8,8.8v11c0,4.8,3.9,8.8,8.8,8.8h34.6c4.8,0,8.8-3.9,8.8-8.8v-11c0-4.8-3.9-8.8-8.8-8.8H364z"/>
	<linearGradient id="SVGID_3_" gradientUnits="userSpaceOnUse" x1="-11.5726" y1="24.2859" x2="484.923" y2="24.2859">
		<stop  offset="0" style="stop-color:#17385D"/>
		<stop  offset="0.2405" style="stop-color:#12587E"/>
		<stop  offset="0.4963" style="stop-color:#007CA4"/>
		<stop  offset="0.7175" style="stop-color:#0099C3"/>
		<stop  offset="0.8927" style="stop-color:#00ABD7"/>
		<stop  offset="1" style="stop-color:#04B2DF"/>
	</linearGradient>
	<path class="st2" d="M18,47.8c-9.9,0-18-8.1-18-18v-11C0,8.8,8.1,0.7,18,0.7h34.6c8.5,0,15.9,6,17.6,14.3l0.5,2.3h-9.4L60.9,16
		c-1.2-3.6-4.5-6-8.3-6H18c-4.8,0-8.8,3.9-8.8,8.8v11c0,4.8,3.9,8.8,8.8,8.8h34.6c3.6,0,6.8-2.2,8.1-5.5l0.5-1.2h9.5l-0.6,2.3
		c-2,8.1-9.2,13.7-17.5,13.7H18z"/>
	<linearGradient id="SVGID_4_" gradientUnits="userSpaceOnUse" x1="-11.5726" y1="24.2859" x2="484.923" y2="24.2859">
		<stop  offset="0" style="stop-color:#17385D"/>
		<stop  offset="0.2405" style="stop-color:#12587E"/>
		<stop  offset="0.4963" style="stop-color:#007CA4"/>
		<stop  offset="0.7175" style="stop-color:#0099C3"/>
		<stop  offset="0.8927" style="stop-color:#00ABD7"/>
		<stop  offset="1" style="stop-color:#04B2DF"/>
	</linearGradient>
	<polygon class="st3" points="275.8,0.7 213.4,0.7 213.4,10 240,10 240,47.8 249.3,47.8 249.3,10 275.8,10 	"/>
	<linearGradient id="SVGID_5_" gradientUnits="userSpaceOnUse" x1="-11.5726" y1="23.7114" x2="484.923" y2="23.7114">
		<stop  offset="0" style="stop-color:#17385D"/>
		<stop  offset="0.2405" style="stop-color:#12587E"/>
		<stop  offset="0.4963" style="stop-color:#007CA4"/>
		<stop  offset="0.7175" style="stop-color:#0099C3"/>
		<stop  offset="0.8927" style="stop-color:#00ABD7"/>
		<stop  offset="1" style="stop-color:#04B2DF"/>
	</linearGradient>
	<path class="st4" d="M189.7,0h-35.9v47.4h9.1V8.1h26.8c4.7,0,8.6,3.4,8.6,7.7v31.6h9.1V15.8C207.3,7.1,199.4,0,189.7,0z"/>
	<linearGradient id="SVGID_6_" gradientUnits="userSpaceOnUse" x1="-11.5726" y1="24.2859" x2="484.923" y2="24.2859">
		<stop  offset="0" style="stop-color:#17385D"/>
		<stop  offset="0.2405" style="stop-color:#12587E"/>
		<stop  offset="0.4963" style="stop-color:#007CA4"/>
		<stop  offset="0.7175" style="stop-color:#0099C3"/>
		<stop  offset="0.8927" style="stop-color:#00ABD7"/>
		<stop  offset="1" style="stop-color:#04B2DF"/>
	</linearGradient>
	<path class="st5" d="M431,29.8V0.7h-9.3v29.1c0,9.9,8.1,18,18,18h41.1v-9.3h-41.1C434.9,38.6,431,34.6,431,29.8z"/>
	<linearGradient id="SVGID_7_" gradientUnits="userSpaceOnUse" x1="-11.5726" y1="24.2859" x2="484.923" y2="24.2859">
		<stop  offset="0" style="stop-color:#17385D"/>
		<stop  offset="0.2405" style="stop-color:#12587E"/>
		<stop  offset="0.4963" style="stop-color:#007CA4"/>
		<stop  offset="0.7175" style="stop-color:#0099C3"/>
		<stop  offset="0.8927" style="stop-color:#00ABD7"/>
		<stop  offset="1" style="stop-color:#04B2DF"/>
	</linearGradient>
	<path class="st6" d="M343.4,47.8L321.7,33h16.7V18.8c0-10-8.1-18.1-18-18.1h-33.9h-5.3v47.1h9.3V33h16.4l21.7,14.9H343.4z
		 M290.4,10h30c4.8,0,8.8,3.9,8.8,8.8v4.9h-38.8V10z"/>
</g>
</svg>
